<svg width="22" height="22" viewBox="0 0 22 22" fill="none" xmlns="http://www.w3.org/2000/svg">
<path d="M11.4701 10.12L21.3401 20C21.5039 20.1913 21.5895 20.4374 21.5798 20.689C21.57 20.9407 21.4657 21.1795 21.2876 21.3576C21.1095 21.5356 20.8708 21.64 20.6191 21.6497C20.3674 21.6594 20.1214 21.5738 19.9301 21.41L10.8701 12.35L2.07006 21.15C1.88269 21.3362 1.62924 21.4408 1.36506 21.4408C1.10087 21.4408 0.847419 21.3362 0.660056 21.15C0.566328 21.057 0.491934 20.9464 0.441165 20.8246C0.390396 20.7027 0.364258 20.572 0.364258 20.44C0.364258 20.308 0.390396 20.1773 0.441165 20.0554C0.491934 19.9336 0.566328 19.823 0.660056 19.73L10.2701 10.12C10.4294 9.96122 10.6451 9.87207 10.8701 9.87207C11.095 9.87207 11.3107 9.96122 11.4701 10.12Z" fill="#A0A3AB"/>
<path d="M11.4699 0.540034L21.3399 10.42C21.5038 10.6113 21.5894 10.8574 21.5796 11.1091C21.5699 11.3608 21.4656 11.5995 21.2875 11.7776C21.1094 11.9557 20.8707 12.06 20.619 12.0697C20.3673 12.0795 20.1212 11.9939 19.9299 11.83L10.8699 2.77003L2.06993 11.57C1.88257 11.7563 1.62912 11.8608 1.36493 11.8608C1.10075 11.8608 0.847296 11.7563 0.659933 11.57C0.473682 11.3827 0.369141 11.1292 0.369141 10.865C0.369141 10.6008 0.473682 10.3474 0.659933 10.16L10.2699 0.540034C10.4293 0.381264 10.645 0.292114 10.8699 0.292114C11.0949 0.292114 11.3106 0.381264 11.4699 0.540034Z" fill="#A0A3AB"/>
</svg>
