<svg width="90" height="120" viewBox="0 0 90 120" fill="none" xmlns="http://www.w3.org/2000/svg">
<path d="M82.742 0H7.25808C3.96776 0 0.483887 3.09677 0.483887 6.3871V83.8064L38.8065 120H82.742C86.0323 120 89.5162 116.903 89.5162 113.613V6.3871C89.5162 3.09677 86.0323 0 82.742 0Z" fill="#0EE0B8"/>
<path d="M82.742 0H7.25808C3.96776 0 0.483887 3.09677 0.483887 6.3871V83.8064L38.8065 120H82.742C86.0323 120 89.5162 116.903 89.5162 113.613V6.3871C89.5162 3.09677 86.0323 0 82.742 0Z" fill="#FFC700"/>
<path d="M89.5161 92.9032V6.3871C89.5161 3.09677 86.0322 0 82.7419 0H7.258C3.96768 0 1.06445 2.70968 1.06445 5.80645" fill="#FFB800"/>
<path d="M89.5163 92.9032V6.3871C89.5163 3.09677 86.0324 0 82.7421 0H35.3228" fill="#FFB000"/>
<path d="M33.3872 85.1613V114C33.3872 114.387 33.7743 114.774 33.7743 115.161L38.4195 119.613C38.8066 119.613 39.1937 120 39.5808 120H69.9679L34.1614 85.1613H33.3872Z" fill="#FFC200"/>
<path d="M33.3872 84.9678V114C33.3872 114.387 33.7743 114.774 33.7743 115.161L38.4195 119.613C38.8066 119.613 39.1937 120 39.5808 120H55.0646L37.4517 90.7742L33.3872 84.9678Z" fill="#FFB800"/>
<path d="M38.8065 120H39.1936V89.6129C39.1936 86.3226 36.2903 83.2258 33 83.2258L0.483887 83.6129L38.8065 120Z" fill="white"/>
<path d="M0.483887 83.6129L38.8065 120H39.1936V89.0323" fill="#FFF5C2"/>
<path d="M4.35485 83.6129V6.3871C4.35485 3.09677 6.67744 0 9.77421 0H7.25808C3.96776 0 0.483887 3.09677 0.483887 6.3871V83.8064L4.35485 83.6129Z" fill="#FFD600"/>
<path d="M47.5238 45.4286H62.0476L44.619 71.5627V54.1429H33L38.8095 28H53.3333L47.5238 45.4286Z" stroke="white" stroke-width="3" stroke-linecap="round" stroke-linejoin="round"/>
</svg>
