<svg width="256" height="256" viewBox="0 0 256 256" fill="none" xmlns="http://www.w3.org/2000/svg">
<rect width="256" height="256" rx="60" fill="url(#paint0_linear_185_16)"/>
<rect width="256" height="256" fill="url(#paint1_linear_185_16)"/>
<g filter="url(#filter0_d_185_16)">
<path d="M156.409 49.1133L155.331 47.11L73.7269 131.85L74.8943 134.488C76.168 137.367 78.7225 139.477 81.7894 140.186L119.429 148.875L101.418 203.52C103.788 207.314 109.129 207.788 112.131 204.471L180.312 129.128C182.875 126.296 183.6 122.251 182.182 118.704L181.5 117L138.974 108.611L157.038 57.1643C157.969 54.5115 157.741 51.5892 156.409 49.1133Z" fill="#F9F2FF"/>
</g>
<g filter="url(#filter1_i_185_16)">
<path d="M182.11 118.398C181.937 117.809 181.611 117.277 181.166 116.856C180.722 116.436 180.174 116.142 179.578 116.004L135.487 105.825L156.002 50.6889C156.257 49.9464 156.256 49.14 156 48.3994C155.744 47.6589 155.247 47.0272 154.59 46.6062C153.933 46.1852 153.153 45.9994 152.376 46.0786C151.6 46.1578 150.872 46.4975 150.309 47.0429L74.8623 129.207C74.4303 129.648 74.1226 130.196 73.9711 130.796C73.8196 131.396 73.8297 132.024 74.0004 132.618C74.1711 133.211 74.4962 133.747 74.9421 134.172C75.3881 134.596 75.9388 134.892 76.5375 135.03L119.97 145.058L100.969 200.633C100.736 201.378 100.758 202.179 101.03 202.909C101.302 203.639 101.81 204.255 102.471 204.66C103.133 205.065 103.911 205.236 104.682 205.145C105.452 205.054 106.171 204.706 106.724 204.157L181.282 121.799C181.707 121.355 182.007 120.807 182.152 120.209C182.298 119.612 182.283 118.987 182.11 118.398Z" fill="white"/>
</g>
<g filter="url(#filter2_f_185_16)">
<path d="M79.2156 137.524C78.6763 137.404 78.1426 137.745 78.0235 138.284C77.9044 138.824 78.2451 139.357 78.7844 139.476L79.2156 137.524ZM156.555 54.1719L138.555 106.172L140.445 106.826L158.445 54.8261L156.555 54.1719ZM78.7844 139.476L117.284 147.976L117.716 146.024L79.2156 137.524L78.7844 139.476ZM110.241 207.671L183.741 126.671L182.259 125.327L108.76 206.327L110.241 207.671Z" fill="#A57BCF"/>
</g>
<defs>
<filter id="filter0_d_185_16" x="49.7268" y="27.1104" width="157.17" height="207.579" filterUnits="userSpaceOnUse" color-interpolation-filters="sRGB">
<feFlood flood-opacity="0" result="BackgroundImageFix"/>
<feColorMatrix in="SourceAlpha" type="matrix" values="0 0 0 0 0 0 0 0 0 0 0 0 0 0 0 0 0 0 127 0" result="hardAlpha"/>
<feOffset dy="4"/>
<feGaussianBlur stdDeviation="12"/>
<feComposite in2="hardAlpha" operator="out"/>
<feColorMatrix type="matrix" values="0 0 0 0 0.355962 0 0 0 0 0.217778 0 0 0 0 0.533333 0 0 0 1 0"/>
<feBlend mode="normal" in2="BackgroundImageFix" result="effect1_dropShadow_185_16"/>
<feBlend mode="normal" in="SourceGraphic" in2="effect1_dropShadow_185_16" result="shape"/>
</filter>
<filter id="filter1_i_185_16" x="73.8645" y="46.0605" width="109.387" height="159.108" filterUnits="userSpaceOnUse" color-interpolation-filters="sRGB">
<feFlood flood-opacity="0" result="BackgroundImageFix"/>
<feBlend mode="normal" in="SourceGraphic" in2="BackgroundImageFix" result="shape"/>
<feColorMatrix in="SourceAlpha" type="matrix" values="0 0 0 0 0 0 0 0 0 0 0 0 0 0 0 0 0 0 127 0" result="hardAlpha"/>
<feOffset dx="1"/>
<feGaussianBlur stdDeviation="2"/>
<feComposite in2="hardAlpha" operator="arithmetic" k2="-1" k3="1"/>
<feColorMatrix type="matrix" values="0 0 0 0 0.929856 0 0 0 0 0.870833 0 0 0 0 1 0 0 0 1 0"/>
<feBlend mode="normal" in2="shape" result="effect1_innerShadow_185_16"/>
</filter>
<filter id="filter2_f_185_16" x="72.9998" y="49.1719" width="115.741" height="163.499" filterUnits="userSpaceOnUse" color-interpolation-filters="sRGB">
<feFlood flood-opacity="0" result="BackgroundImageFix"/>
<feBlend mode="normal" in="SourceGraphic" in2="BackgroundImageFix" result="shape"/>
<feGaussianBlur stdDeviation="2.5" result="effect1_foregroundBlur_185_16"/>
</filter>
<linearGradient id="paint0_linear_185_16" x1="210.5" y1="4.62553e-06" x2="79" y2="249.5" gradientUnits="userSpaceOnUse">
<stop stop-color="#91DAF9"/>
<stop offset="0.330529" stop-color="#9BAAFF"/>
<stop offset="0.525841" stop-color="#AD97FD"/>
<stop offset="1" stop-color="#F472EE"/>
</linearGradient>
<linearGradient id="paint1_linear_185_16" x1="194.5" y1="-5.87624e-06" x2="38" y2="231.5" gradientUnits="userSpaceOnUse">
<stop stop-color="#D27BFF"/>
<stop offset="1" stop-color="#8855F9"/>
</linearGradient>
</defs>
</svg>
